<?xml version="1.0" encoding="UTF-8" standalone="no"?>
<svg
   xmlns:dc="http://purl.org/dc/elements/1.1/"
   xmlns:cc="http://creativecommons.org/ns#"
   xmlns:rdf="http://www.w3.org/1999/02/22-rdf-syntax-ns#"
   xmlns:svg="http://www.w3.org/2000/svg"
   xmlns="http://www.w3.org/2000/svg"
   xmlns:sodipodi="http://sodipodi.sourceforge.net/DTD/sodipodi-0.dtd"
   xmlns:inkscape="http://www.inkscape.org/namespaces/inkscape"
   sodipodi:docname="swi.svg"
   inkscape:version="1.0 (1.0+r73+1)"
   id="svg8"
   version="1.1"
   viewBox="0 0 30.916389 8.2226162"
   height="8.2226162mm"
   width="30.916389mm">
  <defs
     id="defs2" />
  <sodipodi:namedview
     fit-margin-bottom="0"
     fit-margin-right="0"
     fit-margin-left="0"
     fit-margin-top="0"
     inkscape:window-maximized="0"
     inkscape:window-y="45"
     inkscape:window-x="610"
     inkscape:window-height="1185"
     inkscape:window-width="1689"
     showgrid="false"
     inkscape:document-rotation="0"
     inkscape:current-layer="layer1"
     inkscape:document-units="mm"
     inkscape:cy="-3.5057713"
     inkscape:cx="81.567391"
     inkscape:zoom="3.959798"
     inkscape:pageshadow="2"
     inkscape:pageopacity="0.0"
     borderopacity="1.0"
     bordercolor="#666666"
     pagecolor="#ffffff"
     id="base" />
  <metadata
     id="metadata5">
    <rdf:RDF>
      <cc:Work
         rdf:about="">
        <dc:format>image/svg+xml</dc:format>
        <dc:type
           rdf:resource="http://purl.org/dc/dcmitype/StillImage" />
        <dc:title></dc:title>
      </cc:Work>
    </rdf:RDF>
  </metadata>
  <g
     transform="translate(109.56465,-17.307324)"
     id="layer1"
     inkscape:groupmode="layer"
     inkscape:label="Layer 1">
    <path
       inkscape:export-ydpi="480"
       inkscape:export-xdpi="480"
       sodipodi:nodetypes="czszccc"
       id="path851"
       d="m -96.519077,21.392024 c 0,0 0.823185,1.529454 0.938544,1.923023 0.115358,0.393568 -0.112185,1.29284 -0.832349,0.540537 -0.607356,-0.634461 -0.910876,-1.549113 -1.282579,-2.233104 -0.371703,-0.683992 -1.340704,-1.790965 -1.340704,-1.790965 l 1.596851,-0.07586 z"
       style="fill:#7776ed;fill-opacity:1;stroke:#ffffff;stroke-width:0.2;stroke-linecap:butt;stroke-linejoin:miter;stroke-miterlimit:4;stroke-dasharray:none;stroke-opacity:1" />
    <path
       inkscape:export-ydpi="480"
       inkscape:export-xdpi="480"
       style="fill:#7776ed;fill-opacity:1;stroke:#ffffff;stroke-width:0.2;stroke-linecap:butt;stroke-linejoin:miter;stroke-miterlimit:4;stroke-dasharray:none;stroke-opacity:1"
       d="m -98.617859,21.042418 c 0,0 0.793575,1.559538 0.901302,1.959109 0.107728,0.399569 -0.13731,1.303695 -0.84294,0.530908 -0.595102,-0.651736 -0.880894,-1.580974 -1.239355,-2.278483 -0.358468,-0.697511 -0.944848,-1.444205 -0.944848,-1.444205 l 1.325971,0.123105 z"
       id="path851-3"
       sodipodi:nodetypes="czszccc" />
    <path
       inkscape:export-ydpi="480"
       inkscape:export-xdpi="480"
       sodipodi:nodetypes="cssssc"
       id="path872"
       d="m -84.1771,22.422398 c 0,0 -1.121382,0.805518 -0.597526,1.825492 0.523857,1.019975 -0.150566,1.216843 -0.272395,1.173218 -0.46353,-0.165988 -0.756638,-0.718463 -0.862068,-1.199396 -0.145405,-0.663287 -0.364643,-1.307074 0.182904,-2.186735 0.54755,-0.879662 1.549085,0.387421 1.549085,0.387421 z"
       style="fill:#c5ead3;fill-opacity:1;stroke:#ffffff;stroke-width:0.2;stroke-linecap:butt;stroke-linejoin:miter;stroke-miterlimit:4;stroke-dasharray:none;stroke-opacity:1" />
    <path
       inkscape:export-ydpi="480"
       inkscape:export-xdpi="480"
       sodipodi:nodetypes="csscsccc"
       id="path874"
       d="m -85.494836,21.6082 c 0,0 -0.935366,0.871915 -1.029562,1.782925 -0.06483,0.626971 0.551456,1.57171 0.0758,1.889419 -0.47566,0.317708 -1.032507,-0.433831 -1.032507,-0.433831 0,0 -0.678795,-0.926384 -0.444382,-1.492028 0.234414,-0.565645 0.67596,-1.493212 0.67596,-1.493212 l 1.224025,-1.121873 z"
       style="fill:#c5ead3;fill-opacity:1;stroke:#ffffff;stroke-width:0.2;stroke-linecap:butt;stroke-linejoin:miter;stroke-miterlimit:4;stroke-dasharray:none;stroke-opacity:1" />
    <path
       inkscape:export-ydpi="480"
       inkscape:export-xdpi="480"
       sodipodi:nodetypes="ssssccsssssss"
       id="path868"
       d="m -91.507615,21.85451 c -0.810246,0.44019 -2.092833,-0.128904 -0.942496,-0.996428 0.306646,-0.231256 1.335109,-0.95047 2.193085,-1.273583 1.315729,-0.495502 2.748109,-0.596259 4.116099,-0.920709 0.608082,-0.14422 1.209964,-0.313931 1.818555,-0.455989 0.807157,-0.246377 1.579731,-0.302893 2.339353,-0.439777 0.424469,-0.07719 0.844975,-0.489287 1.242063,-0.320606 1.309235,0.556157 2.531628,2.711748 1.742657,3.895357 -0.410476,0.615793 -1.313393,0.210912 -2.041841,0.341506 -1.356362,0.243164 -1.519573,2.061561 -4.21874,0.910576 -2.845138,-1.213229 -1.385712,-1.164384 -2.365688,-1.465594 -0.79766,-0.245172 -1.19599,-0.28381 -2.014996,-0.123809 -0.678592,0.13257 -1.260501,0.518987 -1.868051,0.849056 z"
       style="fill:#c5ead3;fill-opacity:1;stroke:#ffffff;stroke-width:0.2;stroke-linecap:butt;stroke-linejoin:miter;stroke-miterlimit:4;stroke-dasharray:none;stroke-opacity:1" />
    <path
       inkscape:export-ydpi="480"
       inkscape:export-xdpi="480"
       sodipodi:nodetypes="sssssss"
       id="path870"
       d="m -82.988413,20.635177 c 0.36576,0.409356 0.0046,0.951724 -1.364711,1.510241 -0.781456,0.31875 -1.796239,0.391539 -2.514616,0.64803 -0.697061,0.248881 -2.027792,1.081901 -2.100592,1.094225 -0.0728,0.01232 -1.354977,0.07883 -0.184274,-1.392199 0.808926,-1.016444 1.852222,-0.467708 2.565347,-1.783694 0.656945,-1.212311 2.456743,-1.354838 3.598846,-0.0766 z"
       style="fill:#c5ead3;fill-opacity:1;stroke:#ffffff;stroke-width:0.2;stroke-linecap:butt;stroke-linejoin:miter;stroke-miterlimit:4;stroke-dasharray:none;stroke-opacity:1" />
    <path
       inkscape:export-ydpi="480"
       inkscape:export-xdpi="480"
       sodipodi:nodetypes="czzzzzzzzzzzzzzzzccc"
       id="path849"
       d="m -96.458188,21.206973 c 0.377849,0.222026 1.090757,1.407725 2.123454,1.405777 1.032697,-0.0019 -0.244215,-1.420862 -0.43149,-1.577962 -0.187275,-0.1571 -0.566876,-0.67285 -1.201608,-1.081879 -0.634732,-0.409029 -1.387908,-0.821678 -2.670111,-1.166424 -1.282203,-0.344746 -3.802387,-0.674383 -5.020187,-0.57203 -1.2178,0.102353 -1.84841,0.244665 -2.45117,0.542701 -0.60276,0.298036 -3.19027,0.800518 -3.34391,1.402006 -0.15364,0.601488 1.62549,3.024923 2.35861,3.202293 0.73313,0.17737 1.7165,-1.661164 2.73185,-1.641853 1.01535,0.01931 1.43141,0.77834 2.34841,1.207853 0.917,0.429514 0.93683,0.762263 1.65436,1.068318 0.717534,0.306054 0.992127,0.161342 1.582009,0.474516 0.589883,0.313174 1.481645,0.489512 1.556417,0.07081 0.07477,-0.418702 -0.648704,-1.276955 -1.662118,-1.723524 -1.013413,-0.446569 -1.139698,-0.773421 -1.249098,-1.067689 -0.10939,-0.294268 -0.0946,-0.962644 0.342828,-1.06415 0.437464,-0.101507 0.529741,-0.355636 2.062489,0.04255 0.210839,0.07978 0.648753,0.06217 1.269265,0.478691 z"
       style="fill:#7776ed;fill-opacity:1;stroke:#ffffff;stroke-width:0.2;stroke-linecap:butt;stroke-linejoin:miter;stroke-miterlimit:4;stroke-dasharray:none;stroke-opacity:1" />
  </g>
</svg>
